<svg width="166" height="39" viewBox="0 0 166 39" fill="none" xmlns="http://www.w3.org/2000/svg">
<g filter="url(#filter0_d_316_281)">
<rect x="4" width="158" height="31" rx="15.5" fill="white"/>
<path d="M27.625 22.625L24.1868 19.1868M24.1868 19.1868C24.7749 18.5987 25.2414 17.9005 25.5597 17.132C25.878 16.3636 26.0418 15.54 26.0418 14.7083C26.0418 13.8766 25.878 13.053 25.5597 12.2846C25.2414 11.5162 24.7749 10.818 24.1868 10.2299C23.5987 9.64174 22.9005 9.17521 22.1321 8.85693C21.3637 8.53864 20.5401 8.37482 19.7083 8.37482C18.8766 8.37482 18.053 8.53864 17.2846 8.85693C16.5162 9.17521 15.818 9.64174 15.2299 10.2299C14.0421 11.4176 13.3748 13.0286 13.3748 14.7083C13.3748 16.3881 14.0421 17.999 15.2299 19.1868C16.4176 20.3745 18.0286 21.0418 19.7083 21.0418C21.3881 21.0418 22.999 20.3745 24.1868 19.1868Z" stroke="black" stroke-width="2.5" stroke-linecap="round" stroke-linejoin="round"/>
<path d="M39.98 19.07C39.52 19.07 39.1067 18.99 38.74 18.83C38.38 18.6633 38.0967 18.4367 37.89 18.15C37.6833 17.8567 37.5767 17.52 37.57 17.14H38.54C38.5733 17.4667 38.7067 17.7433 38.94 17.97C39.18 18.19 39.5267 18.3 39.98 18.3C40.4133 18.3 40.7533 18.1933 41 17.98C41.2533 17.76 41.38 17.48 41.38 17.14C41.38 16.8733 41.3067 16.6567 41.16 16.49C41.0133 16.3233 40.83 16.1967 40.61 16.11C40.39 16.0233 40.0933 15.93 39.72 15.83C39.26 15.71 38.89 15.59 38.61 15.47C38.3367 15.35 38.1 15.1633 37.9 14.91C37.7067 14.65 37.61 14.3033 37.61 13.87C37.61 13.49 37.7067 13.1533 37.9 12.86C38.0933 12.5667 38.3633 12.34 38.71 12.18C39.0633 12.02 39.4667 11.94 39.92 11.94C40.5733 11.94 41.1067 12.1033 41.52 12.43C41.94 12.7567 42.1767 13.19 42.23 13.73H41.23C41.1967 13.4633 41.0567 13.23 40.81 13.03C40.5633 12.8233 40.2367 12.72 39.83 12.72C39.45 12.72 39.14 12.82 38.9 13.02C38.66 13.2133 38.54 13.4867 38.54 13.84C38.54 14.0933 38.61 14.3 38.75 14.46C38.8967 14.62 39.0733 14.7433 39.28 14.83C39.4933 14.91 39.79 15.0033 40.17 15.11C40.63 15.2367 41 15.3633 41.28 15.49C41.56 15.61 41.8 15.8 42 16.06C42.2 16.3133 42.3 16.66 42.3 17.1C42.3 17.44 42.21 17.76 42.03 18.06C41.85 18.36 41.5833 18.6033 41.23 18.79C40.8767 18.9767 40.46 19.07 39.98 19.07ZM48.1691 14.32C48.3825 14.5667 48.5458 14.8533 48.6591 15.18C48.7791 15.5067 48.8391 15.8633 48.8391 16.25C48.8391 16.8167 48.7125 17.3167 48.4591 17.75C48.2125 18.1767 47.8758 18.5067 47.4491 18.74C47.0225 18.9733 46.5491 19.09 46.0291 19.09C45.3825 19.09 44.8125 18.9067 44.3191 18.54L43.8991 19H43.2491L43.9691 18.21C43.7558 17.9567 43.5891 17.6667 43.4691 17.34C43.3558 17.0067 43.2991 16.6433 43.2991 16.25C43.2991 15.69 43.4191 15.1967 43.6591 14.77C43.9058 14.3367 44.2391 14.0067 44.6591 13.78C45.0791 13.5467 45.5491 13.43 46.0691 13.43C46.7425 13.43 47.3258 13.62 47.8191 14L48.2491 13.52H48.8991L48.1691 14.32ZM44.2291 16.25C44.2291 16.7633 44.3458 17.1967 44.5791 17.55L47.2391 14.63C46.9191 14.3567 46.5258 14.22 46.0591 14.22C45.7258 14.22 45.4191 14.2967 45.1391 14.45C44.8658 14.5967 44.6458 14.8233 44.4791 15.13C44.3125 15.4367 44.2291 15.81 44.2291 16.25ZM47.9091 16.25C47.9091 15.7367 47.7925 15.3167 47.5591 14.99L44.8991 17.91C45.2125 18.1633 45.5891 18.29 46.0291 18.29C46.3558 18.29 46.6625 18.2133 46.9491 18.06C47.2358 17.9067 47.4658 17.6767 47.6391 17.37C47.8191 17.0633 47.9091 16.69 47.9091 16.25ZM52.2956 13.43C52.769 13.43 53.1823 13.5333 53.5356 13.74C53.8956 13.9467 54.1623 14.2067 54.3356 14.52V13.52H55.2556V19.12C55.2556 19.62 55.149 20.0633 54.9356 20.45C54.7223 20.8433 54.4156 21.15 54.0156 21.37C53.6223 21.59 53.1623 21.7 52.6356 21.7C51.9156 21.7 51.3156 21.53 50.8356 21.19C50.3556 20.85 50.0723 20.3867 49.9856 19.8H50.8856C50.9856 20.1333 51.1923 20.4 51.5056 20.6C51.819 20.8067 52.1956 20.91 52.6356 20.91C53.1356 20.91 53.5423 20.7533 53.8556 20.44C54.1756 20.1267 54.3356 19.6867 54.3356 19.12V17.97C54.1556 18.29 53.889 18.5567 53.5356 18.77C53.1823 18.9833 52.769 19.09 52.2956 19.09C51.809 19.09 51.3656 18.97 50.9656 18.73C50.5723 18.49 50.2623 18.1533 50.0356 17.72C49.809 17.2867 49.6956 16.7933 49.6956 16.24C49.6956 15.68 49.809 15.19 50.0356 14.77C50.2623 14.3433 50.5723 14.0133 50.9656 13.78C51.3656 13.5467 51.809 13.43 52.2956 13.43ZM54.3356 16.25C54.3356 15.8367 54.2523 15.4767 54.0856 15.17C53.919 14.8633 53.6923 14.63 53.4056 14.47C53.1256 14.3033 52.8156 14.22 52.4756 14.22C52.1356 14.22 51.8256 14.3 51.5456 14.46C51.2656 14.62 51.0423 14.8533 50.8756 15.16C50.709 15.4667 50.6256 15.8267 50.6256 16.24C50.6256 16.66 50.709 17.0267 50.8756 17.34C51.0423 17.6467 51.2656 17.8833 51.5456 18.05C51.8256 18.21 52.1356 18.29 52.4756 18.29C52.8156 18.29 53.1256 18.21 53.4056 18.05C53.6923 17.8833 53.919 17.6467 54.0856 17.34C54.2523 17.0267 54.3356 16.6633 54.3356 16.25ZM62.1795 13.42C62.5928 13.42 62.9661 13.51 63.2995 13.69C63.6328 13.8633 63.8928 14.1267 64.0795 14.48C64.2728 14.8333 64.3695 15.2633 64.3695 15.77V19H63.4695V15.9C63.4695 15.3533 63.3328 14.9367 63.0595 14.65C62.7861 14.3567 62.4128 14.21 61.9395 14.21C61.4595 14.21 61.0761 14.36 60.7895 14.66C60.5095 14.96 60.3695 15.3967 60.3695 15.97V19H59.4595V11.6H60.3695V14.3C60.5495 14.02 60.7961 13.8033 61.1095 13.65C61.4295 13.4967 61.7861 13.42 62.1795 13.42ZM70.8559 16.05C70.8559 16.2233 70.8459 16.4067 70.8259 16.6H66.4459C66.4793 17.14 66.6626 17.5633 66.9959 17.87C67.3359 18.17 67.7459 18.32 68.2259 18.32C68.6193 18.32 68.9459 18.23 69.2059 18.05C69.4726 17.8633 69.6593 17.6167 69.7659 17.31H70.7459C70.5993 17.8367 70.3059 18.2667 69.8659 18.6C69.4259 18.9267 68.8793 19.09 68.2259 19.09C67.7059 19.09 67.2393 18.9733 66.8259 18.74C66.4193 18.5067 66.0993 18.1767 65.8659 17.75C65.6326 17.3167 65.5159 16.8167 65.5159 16.25C65.5159 15.6833 65.6293 15.1867 65.8559 14.76C66.0826 14.3333 66.3993 14.0067 66.8059 13.78C67.2193 13.5467 67.6926 13.43 68.2259 13.43C68.7459 13.43 69.2059 13.5433 69.6059 13.77C70.0059 13.9967 70.3126 14.31 70.5259 14.71C70.7459 15.1033 70.8559 15.55 70.8559 16.05ZM69.9159 15.86C69.9159 15.5133 69.8393 15.2167 69.6859 14.97C69.5326 14.7167 69.3226 14.5267 69.0559 14.4C68.7959 14.2667 68.5059 14.2 68.1859 14.2C67.7259 14.2 67.3326 14.3467 67.0059 14.64C66.6859 14.9333 66.5026 15.34 66.4559 15.86H69.9159ZM72.9671 14.41C73.1271 14.0967 73.3538 13.8533 73.6471 13.68C73.9471 13.5067 74.3104 13.42 74.7371 13.42V14.36H74.4971C73.4771 14.36 72.9671 14.9133 72.9671 16.02V19H72.0571V13.52H72.9671V14.41Z" fill="black" fill-opacity="0.59"/>
</g>
<defs>
<filter id="filter0_d_316_281" x="0" y="0" width="166" height="39" filterUnits="userSpaceOnUse" color-interpolation-filters="sRGB">
<feFlood flood-opacity="0" result="BackgroundImageFix"/>
<feColorMatrix in="SourceAlpha" type="matrix" values="0 0 0 0 0 0 0 0 0 0 0 0 0 0 0 0 0 0 127 0" result="hardAlpha"/>
<feOffset dy="4"/>
<feGaussianBlur stdDeviation="2"/>
<feComposite in2="hardAlpha" operator="out"/>
<feColorMatrix type="matrix" values="0 0 0 0 0 0 0 0 0 0 0 0 0 0 0 0 0 0 0.25 0"/>
<feBlend mode="normal" in2="BackgroundImageFix" result="effect1_dropShadow_316_281"/>
<feBlend mode="normal" in="SourceGraphic" in2="effect1_dropShadow_316_281" result="shape"/>
</filter>
</defs>
</svg>
